<svg xmlns="http://www.w3.org/2000/svg" width="32" height="32" viewBox="0 0 24 24" color="#60646b" fill="none" stroke="currentColor" stroke-width="1.9" stroke-linecap="round" stroke-linejoin="round"><mask id="m" maskUnits="userSpaceOnUse" x="0" y="0" width="24" height="24"><rect width="24" height="24" fill="#fff" stroke="none"/><path d="M4 4 20 20" stroke="#000" stroke-width="5.1"/></mask><g mask="url(#m)"><path d="M5 4.5h14A1.5 1.5 0 0 1 20.5 6v9.5A1.5 1.5 0 0 1 19 17h-2.5v2.5a1 1 0 0 1-1 1h-7a1 1 0 0 1-1-1V17H5a1.5 1.5 0 0 1-1.5-1.5V6A1.5 1.5 0 0 1 5 4.5z"/><path d="M8.5 8v2.5M10.83 8v2.5M13.17 8v2.5M15.5 8v2.5" stroke-width="1.5"/></g><path d="M4 4 20 20"/></svg>
